<svg width="1440" height="264" viewBox="0 0 1440 264" fill="none" xmlns="http://www.w3.org/2000/svg">
<path d="M-1.13812 92L11.4734 81.3C24.185 71 49.9084 49 74.9312 49.3C100.054 49 124.977 71 151.001 86.7C175.823 103 201.046 113 226.069 97.3C251.692 81 277.116 39 302.138 54.7C327.562 71 353.185 145 378.208 172C403.431 199 428.253 177 454.277 145.3C479.3 113 504.323 71 530.347 70.7C555.169 71 580.392 113 605.415 113.3C631.038 113 656.461 71 681.484 81.3C706.907 92 732.531 156 757.554 204C782.777 252 807.599 284 833.623 246.7C858.546 209 883.669 103 908.691 97.3C934.415 92 959.738 188 984.761 204C1010.28 220 1035.81 156 1060.83 113.3C1086.15 71 1111.88 49 1136.9 49.3C1162.02 49 1186.95 71 1212.97 76C1237.89 81 1263.01 71 1288.04 76C1313.76 81 1339.08 103 1364.11 118.7C1389.63 135 1415.15 145 1427.16 150.7L1440.18 156V-4H1427.56C1414.85 -4 1389.13 -4 1364.11 -4C1338.98 -4 1314.06 -4 1288.04 -4C1263.21 -4 1237.99 -4 1212.97 -4C1187.35 -4 1161.92 -4 1136.9 -4C1111.48 -4 1085.85 -4 1060.83 -4C1035.61 -4 1010.78 -4 984.761 -4C959.738 -4 934.715 -4 908.691 -4C883.869 -4 858.646 -4 833.623 -4C808 -4 782.576 -4 757.554 -4C732.13 -4 706.507 -4 681.484 -4C656.261 -4 631.439 -4 605.415 -4C580.492 -4 555.369 -4 530.347 -4C504.623 -4 479.3 -4 454.277 -4C428.754 -4 403.231 -4 378.208 -4C352.885 -4 327.161 -4 302.138 -4C277.016 -4 252.093 -4 226.069 -4C201.146 -4 176.023 -4 151.001 -4C125.277 -4 99.9541 -4 74.9312 -4C49.408 -4 23.8847 -4 11.8737 -4H-1.13812V92Z" fill="black"/>
</svg>
