<svg width="320" height="320" viewBox="0 0 320 320" fill="none" xmlns="http://www.w3.org/2000/svg">
<path d="M36.3637 196.364C28.3637 196.364 21.8182 189.818 21.8182 181.818C21.8182 173.818 28.3637 167.273 36.3637 167.273H130.909C138.909 167.273 145.455 173.818 145.455 181.818C145.455 189.818 138.909 196.364 130.909 196.364H36.3637ZM160 196.364C152 196.364 145.455 189.818 145.455 181.818C145.455 173.818 152 167.273 160 167.273H225.455C233.455 167.273 240 173.818 240 181.818C240 189.818 233.455 196.364 225.455 196.364H160ZM254.546 196.364C246.546 196.364 240 189.818 240 181.818C240 173.818 246.546 167.273 254.546 167.273H283.636C291.636 167.273 298.182 173.818 298.182 181.818C298.182 189.818 291.636 196.364 283.636 196.364H254.546Z" fill="#DF3540"/>
<path d="M58.1819 305.454C37.8182 305.454 21.8182 289.454 21.8182 269.091C21.8182 261.091 28.3637 254.545 36.3637 254.545H283.636C291.636 254.545 298.182 261.091 298.182 269.091C298.182 289.454 282.182 305.454 261.818 305.454H58.1819ZM36.3637 116.364C28.3637 116.364 21.8182 109.818 21.8182 101.818C21.8182 53.8181 61.091 14.5454 109.091 14.5454H210.909C258.909 14.5454 298.182 53.8181 298.182 101.818C298.182 109.818 291.636 116.364 283.636 116.364H36.3637Z" fill="#F6B545"/>
<path d="M283.636 123.636H36.3636C24 123.636 14.5454 114.182 14.5454 101.818C14.5454 49.4545 56.7272 7.27271 109.091 7.27271H210.909C263.273 7.27271 305.454 49.4545 305.454 101.818C305.454 114.182 296 123.636 283.636 123.636ZM109.091 21.8182C64.7272 21.8182 29.0909 57.4545 29.0909 101.818C29.0909 106.182 32 109.091 36.3636 109.091H283.636C288 109.091 290.909 106.182 290.909 101.818C290.909 57.4545 255.273 21.8182 210.909 21.8182H109.091Z" fill="#014463"/>
<path d="M25.4545 254.546C15.2727 254.546 7.27271 246.546 7.27271 236.364C7.27271 226.182 15.2727 218.182 25.4545 218.182H294.545C304.727 218.182 312.727 226.182 312.727 236.364C312.727 246.546 304.727 254.546 294.545 254.546H25.4545Z" fill="#F04B4D"/>
<path d="M18.1818 218.182C12.3636 218.182 7.27271 213.091 7.27271 207.273C7.27271 201.455 12.3636 196.364 18.1818 196.364H301.818C307.636 196.364 312.727 201.455 312.727 207.273C312.727 213.091 307.636 218.182 301.818 218.182H18.1818Z" fill="#3BB54A"/>
<path d="M320 207.273C320 197.818 312.727 190.545 304 189.091C304.727 186.909 305.455 184 305.455 181.818C305.455 169.455 296 160 283.636 160H254.545C248.727 160 243.636 162.182 240 165.818C236.364 162.182 231.273 160 225.455 160H160C154.182 160 149.091 162.182 145.455 165.818C141.818 162.182 136.727 160 130.909 160H36.3636C24 160 14.5455 169.455 14.5455 181.818C14.5455 184.727 15.2727 186.909 16 189.091C7.27273 190.545 0 197.818 0 207.273C0 212.364 2.18182 217.455 5.81818 220.364C2.18182 224.727 0 230.545 0 236.364C0 250.182 11.6364 261.818 25.4545 261.818H294.545C308.364 261.818 320 250.182 320 236.364C320 230.545 317.818 224.727 314.182 220.364C317.818 217.455 320 212.364 320 207.273ZM254.545 174.545H283.636C288 174.545 290.909 177.455 290.909 181.818C290.909 186.182 288 189.091 283.636 189.091H254.545C250.182 189.091 247.273 186.182 247.273 181.818C247.273 177.455 250.182 174.545 254.545 174.545ZM160 174.545H225.455C229.818 174.545 232.727 177.455 232.727 181.818C232.727 186.182 229.818 189.091 225.455 189.091H160C155.636 189.091 152.727 186.182 152.727 181.818C152.727 177.455 155.636 174.545 160 174.545ZM36.3636 174.545H130.909C135.273 174.545 138.182 177.455 138.182 181.818C138.182 186.182 135.273 189.091 130.909 189.091H36.3636C32 189.091 29.0909 186.182 29.0909 181.818C29.0909 177.455 32 174.545 36.3636 174.545ZM18.1818 203.636H301.818C304 203.636 305.455 205.091 305.455 207.273C305.455 209.455 304 210.909 301.818 210.909H18.1818C16 210.909 14.5455 209.455 14.5455 207.273C14.5455 205.091 16 203.636 18.1818 203.636ZM294.545 247.273H25.4545C19.6364 247.273 14.5455 242.182 14.5455 236.364C14.5455 230.545 19.6364 225.455 25.4545 225.455H294.545C300.364 225.455 305.455 230.545 305.455 236.364C305.455 242.182 300.364 247.273 294.545 247.273Z" fill="#014463"/>
<path d="M18.1818 138.182C12.3636 138.182 7.27271 133.091 7.27271 127.273C7.27271 121.454 12.3636 116.364 18.1818 116.364H301.818C307.636 116.364 312.727 121.454 312.727 127.273C312.727 133.091 307.636 138.182 301.818 138.182H18.1818Z" fill="#3BB54A"/>
<path d="M301.818 203.636H216.727C217.455 203.636 218.182 205.091 218.182 207.273C218.182 209.455 217.455 210.909 216.727 210.909H301.818C304 210.909 305.455 209.455 305.455 207.273C305.455 205.091 304 203.636 301.818 203.636ZM301.818 123.636H216.727C217.455 123.636 218.182 125.091 218.182 127.273C218.182 129.455 217.455 130.909 216.727 130.909H301.818C304 130.909 305.455 129.455 305.455 127.273C305.455 125.091 304 123.636 301.818 123.636Z" fill="#1E9647"/>
<path d="M98.1818 196.364C95.2727 196.364 92.3636 194.909 90.1818 192.727C88 190.546 87.2727 188.364 87.2727 185.455V174.546C87.2727 170.182 84.3636 167.273 80 167.273H29.0909C21.0909 167.273 14.5454 160.727 14.5454 152.727C14.5454 144.727 21.0909 138.182 29.0909 138.182H290.909C298.909 138.182 305.454 144.727 305.454 152.727C305.454 160.727 298.909 167.273 290.909 167.273H148.364C141.818 167.273 135.273 169.455 130.182 173.818L104.727 194.182C102.545 195.636 100.364 196.364 98.1818 196.364Z" fill="#FFCB5B"/>
<path d="M320 127.273C320 117.091 312 109.091 301.818 109.091H18.1818C8 109.091 0 117.091 0 127.273C0 133.818 3.63636 140.364 9.45455 143.273C8 146.182 7.27273 149.091 7.27273 152.727C7.27273 165.091 16.7273 174.545 29.0909 174.545H80V185.454C80 195.636 88 203.636 98.1818 203.636C102.545 203.636 106.182 202.182 109.818 200L135.273 179.636C138.909 176.727 144 174.545 149.091 174.545H290.909C303.273 174.545 312.727 165.091 312.727 152.727C312.727 149.091 312 146.182 310.545 143.273C316.364 140.364 320 133.818 320 127.273ZM18.1818 123.636H301.818C304 123.636 305.455 125.091 305.455 127.273C305.455 129.454 304 130.909 301.818 130.909H18.1818C16 130.909 14.5455 129.454 14.5455 127.273C14.5455 125.091 16 123.636 18.1818 123.636ZM290.909 160H148.364C140.364 160 132.364 162.909 125.818 168L100.364 188.364C98.1818 189.818 94.5454 188.364 94.5454 185.454V174.545C94.5454 166.545 88 160 80 160H29.0909C24.7273 160 21.8182 157.091 21.8182 152.727C21.8182 148.364 24.7273 145.454 29.0909 145.454H290.909C295.273 145.454 298.182 148.364 298.182 152.727C298.182 157.091 295.273 160 290.909 160Z" fill="#004463"/>
<path d="M290.909 145.455H215.273C216.727 145.455 218.182 148.364 218.182 152.727H146.182C138.182 152.727 130.182 155.636 123.636 160.727L94.5455 185.455C94.5455 188.364 98.1818 189.818 100.364 188.364L125.818 168C132.364 162.909 140.364 160 148.364 160H290.909C295.273 160 298.182 157.091 298.182 152.727C298.182 148.364 295.273 145.455 290.909 145.455Z" fill="#F4A634"/>
<path d="M72.7273 152.727H21.8182C21.8182 157.091 24.7273 160 29.091 160H80.0001C82.1819 160 84.3637 160.727 85.8182 161.455C83.6364 156.364 78.5455 152.727 72.7273 152.727Z" fill="#F6B545"/>
<path d="M130.909 50.9092C130.909 52.838 131.675 54.6879 133.039 56.0518C134.403 57.4157 136.253 58.1819 138.182 58.1819C140.111 58.1819 141.96 57.4157 143.324 56.0518C144.688 54.6879 145.455 52.838 145.455 50.9092C145.455 48.9804 144.688 47.1305 143.324 45.7666C141.96 44.4027 140.111 43.6365 138.182 43.6365C136.253 43.6365 134.403 44.4027 133.039 45.7666C131.675 47.1305 130.909 48.9804 130.909 50.9092Z" fill="#E58824"/>
<path d="M87.2727 50.9092C87.2727 52.838 88.0389 54.6879 89.4028 56.0518C90.7667 57.4157 92.6166 58.1819 94.5454 58.1819C96.4743 58.1819 98.3241 57.4157 99.688 56.0518C101.052 54.6879 101.818 52.838 101.818 50.9092C101.818 48.9804 101.052 47.1305 99.688 45.7666C98.3241 44.4027 96.4743 43.6365 94.5454 43.6365C92.6166 43.6365 90.7667 44.4027 89.4028 45.7666C88.0389 47.1305 87.2727 48.9804 87.2727 50.9092Z" fill="#E58824"/>
<path d="M65.4546 80C65.4546 81.9289 66.2208 83.7787 67.5847 85.1426C68.9486 86.5065 70.7985 87.2727 72.7273 87.2727C74.6562 87.2727 76.506 86.5065 77.8699 85.1426C79.2338 83.7787 80 81.9289 80 80C80 78.0712 79.2338 76.2213 77.8699 74.8574C76.506 73.4935 74.6562 72.7273 72.7273 72.7273C70.7985 72.7273 68.9486 73.4935 67.5847 74.8574C66.2208 76.2213 65.4546 78.0712 65.4546 80Z" fill="#E58824"/>
<path d="M109.091 80C109.091 81.9289 109.857 83.7787 111.221 85.1426C112.585 86.5065 114.435 87.2727 116.364 87.2727C118.292 87.2727 120.142 86.5065 121.506 85.1426C122.87 83.7787 123.636 81.9289 123.636 80C123.636 78.0712 122.87 76.2213 121.506 74.8574C120.142 73.4935 118.292 72.7273 116.364 72.7273C114.435 72.7273 112.585 73.4935 111.221 74.8574C109.857 76.2213 109.091 78.0712 109.091 80Z" fill="#E58824"/>
<path d="M174.545 50.9092C174.545 52.838 175.312 54.6879 176.676 56.0518C178.039 57.4157 179.889 58.1819 181.818 58.1819C183.747 58.1819 185.597 57.4157 186.961 56.0518C188.325 54.6879 189.091 52.838 189.091 50.9092C189.091 48.9804 188.325 47.1305 186.961 45.7666C185.597 44.4027 183.747 43.6365 181.818 43.6365C179.889 43.6365 178.039 44.4027 176.676 45.7666C175.312 47.1305 174.545 48.9804 174.545 50.9092Z" fill="#E58824"/>
<path d="M152.727 80C152.727 81.9289 153.494 83.7787 154.857 85.1426C156.221 86.5065 158.071 87.2727 160 87.2727C161.929 87.2727 163.779 86.5065 165.143 85.1426C166.507 83.7787 167.273 81.9289 167.273 80C167.273 78.0712 166.507 76.2213 165.143 74.8574C163.779 73.4935 161.929 72.7273 160 72.7273C158.071 72.7273 156.221 73.4935 154.857 74.8574C153.494 76.2213 152.727 78.0712 152.727 80Z" fill="#E58824"/>
<path d="M294.545 225.455H220.364C221.091 225.455 221.091 226.182 221.818 226.182C225.455 232 220.364 240 213.818 240H15.2727C16.7273 244.364 21.0909 247.273 25.4545 247.273H294.545C300.364 247.273 305.455 242.182 305.455 236.364C305.455 230.546 300.364 225.455 294.545 225.455Z" fill="#DE333F"/>
<path d="M283.636 261.818H36.3636C40.7273 266.182 47.2727 269.091 53.8182 269.091H203.636C217.455 269.091 218.182 290.909 204.364 290.909H43.6364C42.1818 290.909 40 290.909 38.5455 290.182C43.6364 295.273 50.9091 298.182 58.1818 298.182H261.818C277.818 298.182 290.909 285.091 290.909 269.091C290.909 267.636 290.182 266.182 289.455 264.727C288 263.273 285.818 261.818 283.636 261.818Z" fill="#F19A22"/>
<path d="M261.818 312.727H58.1818C34.1818 312.727 14.5454 293.091 14.5454 269.091C14.5454 256.727 24 247.273 36.3636 247.273H283.636C296 247.273 305.454 256.727 305.454 269.091C305.454 293.091 285.818 312.727 261.818 312.727ZM36.3636 261.818C32 261.818 29.0909 264.727 29.0909 269.091C29.0909 285.091 42.1818 298.182 58.1818 298.182H261.818C277.818 298.182 290.909 285.091 290.909 269.091C290.909 264.727 288 261.818 283.636 261.818H36.3636Z" fill="#014463"/>
<path d="M244.364 29.0908H216.727C206.545 29.0908 199.273 38.5454 202.909 47.9999C206.545 58.909 209.455 71.9999 210.182 86.5454C210.909 94.5454 204.364 101.818 195.636 101.818H29.0909C29.0909 106.182 32 109.091 36.3637 109.091H283.636C288 109.091 290.909 105.454 290.909 101.818C290.909 69.8181 271.273 41.4545 244.364 29.0908Z" fill="#F19A22"/>
<path d="M218.182 50.9092C218.182 52.838 218.948 54.6879 220.312 56.0518C221.676 57.4157 223.526 58.1819 225.455 58.1819C227.383 58.1819 229.233 57.4157 230.597 56.0518C231.961 54.6879 232.727 52.838 232.727 50.9092C232.727 48.9804 231.961 47.1305 230.597 45.7666C229.233 44.4027 227.383 43.6365 225.455 43.6365C223.526 43.6365 221.676 44.4027 220.312 45.7666C218.948 47.1305 218.182 48.9804 218.182 50.9092Z" fill="#E58824"/>
<path d="M240 80C240 81.9289 240.766 83.7787 242.13 85.1426C243.494 86.5065 245.344 87.2727 247.273 87.2727C249.202 87.2727 251.051 86.5065 252.415 85.1426C253.779 83.7787 254.545 81.9289 254.545 80C254.545 78.0712 253.779 76.2213 252.415 74.8574C251.051 73.4935 249.202 72.7273 247.273 72.7273C245.344 72.7273 243.494 73.4935 242.13 74.8574C240.766 76.2213 240 78.0712 240 80Z" fill="#E58824"/>
<path d="M196.364 80C196.364 81.9289 197.13 83.7787 198.494 85.1426C199.858 86.5065 201.708 87.2727 203.636 87.2727C205.565 87.2727 207.415 86.5065 208.779 85.1426C210.143 83.7787 210.909 81.9289 210.909 80C210.909 78.0712 210.143 76.2213 208.779 74.8574C207.415 73.4935 205.565 72.7273 203.636 72.7273C201.708 72.7273 199.858 73.4935 198.494 74.8574C197.13 76.2213 196.364 78.0712 196.364 80Z" fill="#E58824"/>
</svg>
